# xmcd
#
# Track frame offsets:
#	150
#	12815
#	35150
#	51459
#	68350
#	89241
#	105307
#	124594
#	142008
#	157159
#	174528
#	191086
#	207072
#	221149
#	237505
#	253847
#	271776
#	289045
#	302202
#
# Disc length: 4250 seconds
#
# Revision: 1
# Processed by: cddbd v1.5.2PL0 Copyright (c) Steve Scherf et al.
# Submitted via: audiograbber 1.82.01
#
DISCID=23109813
DTITLE=LeAnn Rimes - Greatest Hits
DYEAR=1900
DGENRE=
TTITLE0=Blue
TTITLE1=How do i live
TTITLE2=Can't fight the moonlight (Graham Stack Radio Edit)
TTITLE3=One way ticket (because i can)
TTITLE4=Commitment
TTITLE5=I need you
TTITLE6=Written in the stars (feat. Elton John)
TTITLE7=Unchained Melody
TTITLE8=The light in your eyes
TTITLE9=On the side of Angels
TTITLE10=You light up my life
TTITLE11=Nothin' new under the moon
TTITLE12=Big deal
TTITLE13=Life goes on
TTITLE14=We can
TTITLE15=Last thing on my mind (feat. Ronan Keating)
TTITLE16=This love
TTITLE17=Crazy
TTITLE18=O holy night
EXTD=
EXTT0=
EXTT1=
EXTT2=
EXTT3=
EXTT4=
EXTT5=
EXTT6=
EXTT7=
EXTT8=
EXTT9=
EXTT10=
EXTT11=
EXTT12=
EXTT13=
EXTT14=
EXTT15=
EXTT16=
EXTT17=
EXTT18=
PLAYORDER=
